<svg xmlns="http://www.w3.org/2000/svg" xml:space="preserve" width="1000px" height="1198px" x="0px" y="0px" viewBox="0 0 1000 1198"><g fill="#767575"><path d="M1 1063.788h21.105l93.463 78.288c5.389 4.359 10.543 8.953 15.173 14.342-.796-11.031-1.32-18.809-1.32-22.895v-69.735h27.797v132.778h-21.051l-97.568-82.104c-3.87-3.328-7.506-6.691-11.05-10.815.922 10.309 1.248 17.253 1.248 21.123v71.797H1v-132.779zM196.57 1063.788h135.908v22.642h-105v29.587h104.839v22.679H227.478v32.914h106.34v24.957H196.57v-132.779zM397.802 1063.788h97.804c24.976 0 32.969 6.401 32.969 31.432v69.952c0 25.012-7.993 31.395-32.969 31.395h-97.804c-24.939 0-32.933-6.383-32.933-31.395v-69.952c0-25.031 7.993-31.432 32.933-31.432zm99.92 107.821v-84.131h-102v84.131h102zM550.656 1063.788h31.974l33.711 89.05 35.229-89.05h21.647l36.025 89.05 32.19-89.05h27.58l-51.217 132.778h-20.87l-36.567-91.835-37.11 91.835h-21.341l-51.251-132.778zM794.93 1063.788h30.889v132.778H794.93v-132.778zM856.437 1182.172l92.884-94.693h-83.625v-23.69H999v13.093l-94.132 94.729H999v24.957H856.437v-14.396z"/></g><g fill="#E1002A"><path d="M447.318 467.78c-12.298 29.587 1.827 63.441 31.287 75.739 29.678 12.189 63.677-1.736 75.957-31.359 12.334-29.587-1.936-63.514-31.522-75.921-29.406-12.188-63.496 1.845-75.722 31.541z"/><path d="M49.721 676.77c103.283 249.247 388.935 367.505 638.164 264.222 249.137-103.086 367.414-388.792 264.22-637.929C848.913 53.96 563.279-64.532 314.141 38.751 64.912 141.961-53.382 427.631 49.721 676.77zm530.757-498.657c.199 51.542-25.518 67.909-52.41 84.33l-17.018 9.296 5.172 5.425c24.523 26.477 28.864 67.204 10.489 99.215l-2.803 5.136 4.938 3.183c12.568 7.74 26.35 10.941 26.874 11.014l5.914 1.356 1.446-5.606c7.054-26.006 26.006-46.804 49.752-56.678 8.608-3.545 18.085-5.787 27.706-5.968l7.65-.398-5.317-18.374c-7.65-30.763-14.034-60.439 22.28-96.899 9.875-9.693 20.653-16.457 31.775-21.195 42.897-17.688 90.533-3.762 102.234-.108 5.516 16.457 25.626 87.043-21.376 133.955-11.123 11.339-21.811 18.465-31.92 22.624-22.534 9.404-43.712 5.137-64.708-.181l-18.609-5.426-.235 7.668c-1.176 32.3-22.245 61.417-52.338 73.859-3.328 1.374-6.8 2.532-10.345 3.581l-5.751 1.664 1.302 5.605c3.057 13.817 10.743 26.296 11.032 26.803l3.237 4.919 5.082-2.912c3.382-1.845 6.583-3.382 9.856-4.72 30.184-12.696 65.575-6.873 89.411 15.264l5.372 5.027 9.331-16.928c11.177-18.465 23.167-36.368 45.646-45.827 10.164-4.268 22.733-6.691 38.647-6.583 66.535 0 102.271 64.111 109.813 79.7-6.041 12.1-29.442 54.454-71.707 71.96-11.412 4.738-23.98 7.632-38.105 7.632-51.56 0-67.944-25.535-84.294-52.627l-9.331-17.018-5.517 5.316c-7.144 6.493-15.281 11.701-23.98 15.373-23.745 9.783-51.831 8.445-75.143-4.901l-5.082-2.821-3.237 4.919c-7.65 12.406-10.924 26.332-11.032 26.91l-1.302 5.787 5.57 1.556c35.771 9.676 61.507 41.487 62.863 77.367l.09 7.542 18.609-5.227c30.709-7.74 60.205-14.106 96.683 22.353 46.948 47.094 26.838 117.697 21.358 133.955-16.385 5.589-87.079 25.699-133.938-21.177-36.423-36.46-29.895-66.083-22.443-96.736l5.426-18.664-7.56-.091c-35.971-1.627-68.071-27.163-77.458-62.755l-1.646-5.823-5.806 1.447c-14.504 3.219-26.35 10.851-26.892 11.05l-5.028 3.273 3.002 5.027c18.375 31.812 14.034 72.72-10.489 99.142l-5.172 5.498 17.018 9.404c26.893 16.349 52.41 32.77 52.41 84.222 0 66.354-64.256 102.054-79.483 109.758-15.426-7.523-79.7-43.224-79.7-109.957 0-51.361 25.445-67.782 52.519-84.149l16.964-9.35-5.208-5.426c-24.523-26.513-28.882-67.203-10.508-99.25l2.912-4.919-4.938-3.273c-.524-.308-12.623-7.831-26.929-11.05l-5.805-1.447-1.556 5.715c-6.999 25.916-25.916 46.731-49.607 56.57-8.753 3.581-18.229 5.696-27.904 6.293l-7.542.182 5.263 18.573c7.74 30.653 14.125 60.168-22.28 96.519-9.766 9.767-20.707 16.639-32.064 21.305-42.5 17.687-90.081 3.942-101.891.09-4.883-14.703-25.572-87.043 21.322-133.955 11.321-11.321 21.919-18.374 32.01-22.643 22.443-9.187 43.44-5.027 64.654.199l18.573 5.516.343-7.74c1.212-32.3 22.101-61.308 52.176-73.895 3.382-1.447 6.872-2.514 10.453-3.473l5.606-1.628-1.267-5.715c-.09-.578-3.472-14.793-11.122-26.802l-3.038-4.847-5.136 2.912c-3.184 1.754-6.475 3.382-9.856 4.756-30.13 12.479-65.432 6.836-89.213-15.3l-5.517-5.136-9.332 16.928c-11.267 18.573-23.166 36.567-45.7 45.863-10.109 4.231-22.643 6.655-38.684 6.655-66.3 0-102.813-65.866-109.577-79.773 5.371-10.941 29.442-54.272 72.051-72.068 11.158-4.63 23.691-7.632 37.526-7.632 51.451.108 68.09 25.645 84.384 52.809l9.332 16.818 5.407-5.027c6.638-6.076 14.703-11.394 24.18-15.264 21.575-8.988 48.992-10.272 74.999 4.811l5.136 2.713 3.183-4.938c.145-.47 7.687-12.659 11.086-26.783l1.339-5.787-5.787-1.736c-35.556-9.477-61.272-41.415-62.629-77.477l-.234-7.433-18.483 5.299c-30.744 7.56-60.35 13.926-96.754-22.443-47.003-46.912-26.838-117.606-21.431-133.955 14.559-4.738 87.097-25.717 133.955 21.195 36.55 36.568 30.021 66.245 22.479 96.899l-5.462 18.663 7.596.109c36.025 1.338 67.981 27.091 77.603 62.682l1.411 5.787 5.896-1.465c.633-.072 15.083-3.544 26.893-11.014l5.027-3.183-3.002-5.136c-18.284-31.902-13.979-72.738 10.453-99.215l5.027-5.533-16.783-9.188c-26.838-16.313-52.464-32.788-52.519-84.33.055-66.444 65.92-102.886 79.7-109.866 15.466 7.742 79.487 43.424 79.487 109.868z"/></g></svg>