<svg width="186" height="36" viewBox="0 0 186 36" fill="none" xmlns="http://www.w3.org/2000/svg">
<path fill-rule="evenodd" clip-rule="evenodd" d="M13.1709 9.65869C5.8969 9.65869 -7.62939e-06 15.5556 -7.62939e-06 22.8296C0.000144958 30.0533 5.81581 35.917 13.0205 35.9976C13.0309 35.9978 13.0413 36.0005 13.0518 36.0005H25.9043C26.7608 36.0002 27.2963 35.0724 26.8682 34.3306L24.2978 29.8784C25.5918 27.8402 26.3417 25.4225 26.3418 22.8296C26.3418 15.5557 20.4448 9.65879 13.1709 9.65869Z" fill="#31E7FF"/>
<path fill-rule="evenodd" clip-rule="evenodd" d="M21.2744 0C14.0004 0 8.10348 5.8969 8.10348 13.1709C8.10358 20.3947 13.9193 26.2583 21.124 26.3389C21.1344 26.3391 21.1448 26.3418 21.1552 26.3418H34.0078C34.8643 26.3415 35.3999 25.4137 34.9716 24.6719L32.4013 20.2197C33.6952 18.1815 34.4452 15.7638 34.4453 13.1709C34.4453 5.89696 28.5483 9.83477e-05 21.2744 0Z" fill="#01B2FE"/>
<path fill-rule="evenodd" clip-rule="evenodd" d="M29.2139 9.65869C36.4879 9.65869 42.3848 15.5556 42.3848 22.8296C42.3846 30.0533 36.569 35.9171 29.3643 35.9976C29.3539 35.9978 29.3435 36.0005 29.333 36.0005H16.4805C15.624 36.0002 15.0885 35.0724 15.5166 34.3306L18.0869 29.8784C16.793 27.8402 16.043 25.4225 16.043 22.8296C16.043 15.5557 21.94 9.65881 29.2139 9.65869Z" fill="#0076FE"/>
<path d="M185.272 30.7157H180.376L168.714 12.6617V30.7157H164.328V5.28369H169.19L180.852 23.3037V5.28369H185.272V30.7157Z" fill="#14191E"/>
<path d="M148.27 27.1457C149.948 27.1457 151.421 26.7717 152.69 26.0237C153.96 25.2757 154.934 24.2104 155.614 22.8277C156.317 21.4451 156.668 19.8357 156.668 17.9997C156.668 16.1637 156.317 14.5544 155.614 13.1717C154.934 11.7891 153.96 10.7237 152.69 9.97572C151.421 9.20505 149.948 8.81972 148.27 8.81972C146.593 8.81972 145.12 9.20505 143.85 9.97572C142.604 10.7237 141.629 11.7891 140.926 13.1717C140.246 14.5544 139.906 16.1637 139.906 17.9997C139.906 19.8357 140.246 21.4451 140.926 22.8277C141.629 24.2104 142.604 25.2757 143.85 26.0237C145.12 26.7717 146.593 27.1457 148.27 27.1457ZM148.27 5.01172C150.741 5.01172 152.94 5.56705 154.866 6.67772C156.816 7.76572 158.334 9.29572 159.422 11.2677C160.51 13.2397 161.054 15.4837 161.054 17.9997C161.054 20.4931 160.51 22.7371 159.422 24.7317C158.334 26.7037 156.816 28.2451 154.866 29.3557C152.94 30.4437 150.741 30.9877 148.27 30.9877C145.822 30.9877 143.624 30.4437 141.674 29.3557C139.725 28.2451 138.206 26.7037 137.118 24.7317C136.053 22.7597 135.52 20.5157 135.52 17.9997C135.52 15.4837 136.053 13.2397 137.118 11.2677C138.206 9.29572 139.714 7.76572 141.64 6.67772C143.59 5.56705 145.8 5.01172 148.27 5.01172Z" fill="#14191E"/>
<path d="M124.439 30.9877C121.991 30.9877 119.815 30.4324 117.911 29.3217C116.03 28.2111 114.556 26.6697 113.491 24.6977C112.426 22.7257 111.893 20.4931 111.893 17.9997C111.893 15.4611 112.426 13.2171 113.491 11.2677C114.556 9.29572 116.03 7.76572 117.911 6.67772C119.815 5.56705 121.991 5.01172 124.439 5.01172C126.139 5.01172 127.748 5.35172 129.267 6.03172C130.786 6.68905 132.123 7.60705 133.279 8.78572L130.457 11.7777C129.754 10.8711 128.859 10.1571 127.771 9.63572C126.706 9.09172 125.584 8.81972 124.405 8.81972C122.773 8.81972 121.345 9.19372 120.121 9.94172C118.897 10.6897 117.945 11.7664 117.265 13.1717C116.608 14.5544 116.279 16.1637 116.279 17.9997C116.279 19.8357 116.608 21.4451 117.265 22.8277C117.945 24.2104 118.897 25.2757 120.121 26.0237C121.345 26.7717 122.773 27.1457 124.405 27.1457C125.652 27.1457 126.774 26.8851 127.771 26.3637C128.768 25.8424 129.596 25.1624 130.253 24.3237L133.279 27.1797C132.078 28.4264 130.752 29.3784 129.301 30.0357C127.85 30.6931 126.23 31.0104 124.439 30.9877Z" fill="#14191E"/>
<path d="M108.554 30.7157H103.658L91.9959 12.6617V30.7157H87.6099V5.28369H92.4719L104.134 23.3037V5.28369H108.554V30.7157Z" fill="#14191E"/>
<path d="M83.2488 5.28369V30.7157H78.8628V5.28369H83.2488Z" fill="#14191E"/>
<path d="M75.0688 19.5977C75.0688 21.9097 74.5814 23.927 73.6068 25.6497C72.6321 27.3497 71.2494 28.6643 69.4588 29.5937C67.6681 30.5003 65.5601 30.965 63.1348 30.9877C60.6868 30.9877 58.4881 30.4323 56.5388 29.3217C54.6121 28.211 53.1048 26.6697 52.0168 24.6977C50.9288 22.7257 50.3848 20.493 50.3848 17.9997C50.3848 15.4837 50.9288 13.251 52.0168 11.3017C53.1048 9.32965 54.6121 7.79965 56.5388 6.71166C58.4881 5.60099 60.6868 5.04565 63.1348 5.04565C65.7641 5.04565 68.0081 5.64632 69.8668 6.84766C71.7254 8.02632 73.1081 9.46565 74.0148 11.1657L70.3088 13.1717C69.6741 11.9703 68.7448 10.9503 67.5208 10.1117C66.2968 9.27299 64.8348 8.85365 63.1348 8.85365C61.4574 8.85365 59.9841 9.23899 58.7148 10.0097C57.4454 10.7577 56.4708 11.823 55.7908 13.2057C55.1108 14.5657 54.7708 16.1637 54.7708 17.9997C54.7708 19.8357 55.1108 21.445 55.7908 22.8277C56.4708 24.2103 57.4454 25.2757 58.7148 26.0237C59.9841 26.7717 61.4574 27.1457 63.1348 27.1457C64.5401 27.123 65.8094 26.8963 66.9428 26.4657C68.0761 26.0123 68.9828 25.321 69.6628 24.3917C70.3428 23.4397 70.6941 22.2383 70.7168 20.7877H63.5088V17.2517H75.0688V19.5977Z" fill="#14191E"/>
</svg>
