<svg xmlns="http://www.w3.org/2000/svg" width="500" height="500" viewBox="0 0 255.119 255.116"><path fill="#cfa547" d="M127.563 0C57.12 0 0 57.116 0 127.562c0 70.447 57.12 127.554 127.563 127.554 70.454 0 127.556-57.107 127.556-127.554C255.119 57.116 198.017 0 127.563 0"/><path fill="#580009" d="M127.563 250.2139c-67.734 0-122.658-54.914-122.658-122.652 0-67.74 54.924-122.652 122.658-122.652 67.745 0 122.673 54.912 122.673 122.652 0 67.738-54.928 122.652-122.673 122.652"/><path fill="#cfa547" d="M229.564 93.8848c-2.592-7.857-9.587-13.428-17.855-14.253-1.553-7.095-6.853-10.789-8.459-11.754-5.957-3.871-12.474-3.027-13.95-2.763-.88-1.087-3.82-4.217-8.72-4.775-1.522-.158-3.19.024-4.79.548-.093.032-.178.059-.259.091v-.237c0-1.692-.324-3.329-.957-4.719-2.041-4.492-5.936-6.324-7.225-6.831-.217-1.473-1.428-7.94-6.971-12.422-1.4-1.218-6.539-5.106-13.765-4.393-3.348-7.61-10.809-12.553-19.061-12.581-8.261.028-15.728 4.971-19.073 12.581-7.223-.713-12.38 3.175-13.784 4.405-5.527 4.47-6.738 10.937-6.949 12.41-1.295.507-5.187 2.339-7.231 6.831-.626 1.39-.964 3.027-.964 4.719 0 .089.003.187.012.265-.075-.02-.152-.044-.225-.069-1.612-.517-3.268-.72-4.786-.549-4.915.549-7.854 3.688-8.738 4.767-1.465-.262-7.983-1.1-13.959 2.779-1.589.965-6.882 4.65-8.445 11.735-8.261.837-15.258 6.409-17.844 14.255-2.523 7.86-.138 16.488 6.065 22.017-2.912 6.656-.792 12.753-.069 14.467 2.55 6.634 8.318 9.795 9.661 10.442.079 1.396.614 5.666 4.259 8.99 1.138 1.031 2.591 1.852 4.199 2.374.082.024.17.05.257.079-.046.061-.094.131-.14.186-.998 1.371-1.689 2.894-2.008 4.39-.988 4.836 1.087 8.604 1.84 9.774-.7 1.323-3.515 7.255-1.669 14.141.422 1.808 2.29 7.982 8.551 11.648-1.763 8.127 1.377 16.5 8.038 21.384 6.699 4.821 15.637 5.221 22.819 1.031 5.429 4.823 11.884 4.7 13.744 4.528 7.096-.364 11.878-4.881 12.919-5.951 1.342.363 5.571 1.16 9.86-1.269 1.327-.762 2.561-1.894 3.556-3.261.044-.074.104-.157.153-.231.048.066.088.142.14.202.993 1.372 2.219 2.497 3.552 3.26 4.286 2.442 8.509 1.638 9.861 1.272 1.037 1.08 5.813 5.583 12.937 5.963 1.845.146 8.292.279 13.721-4.535 7.174 4.186 16.121 3.787 22.813-1.038 6.664-4.881 9.802-13.253 8.039-21.386 6.259-3.666 8.135-9.848 8.56-11.672 1.842-6.86-.982-12.797-1.683-14.123.767-1.163 2.836-4.932 1.845-9.768-.311-1.496-1.008-3.016-2.006-4.391-.045-.068-.105-.146-.162-.209.075-.024.158-.052.227-.07 1.613-.517 3.064-1.343 4.197-2.377 3.648-3.324 4.18-7.592 4.26-8.984 1.342-.656 7.113-3.803 9.666-10.456.728-1.719 2.835-7.809-.076-14.461 6.205-5.534 8.588-14.154 6.072-22.006"/><path fill="#fff" d="M127.563 175.2569c-26.335 0-47.686-21.35-47.686-47.687 0-26.344 21.351-47.688 47.686-47.688 26.343 0 47.687 21.344 47.687 47.688 0 26.337-21.344 47.687-47.687 47.687"/><path fill="#a86913" d="M132.7183 74.003c3.246-16.195 6.94-34.592 7.601-37.866-.84-5.554-6.405-10.179-12.768-10.245-6.257.066-11.821 4.622-12.731 10.176.695 3.476 4.382 21.809 7.617 37.935 1.687-.163 3.398-.247 5.126-.247 1.736 0 3.46.091 5.155.247"/><path fill="#a86913" d="M110.7984 39.1963c-1.252-.428-2.557-.677-3.893-.677-3.375 0-6.455 1.25-8.68 3.495-1.863 1.882-2.921 4.349-3.061 6.999 2.3 3.835 9.809 16.372 16.286 27.187 2.105-.654 4.265-1.17 6.459-1.566-2.715-13.535-6.06-30.197-7.111-35.438"/><path fill="#a86913" d="M159.9312 49.0137c-.135-2.65-1.193-5.118-3.051-6.999-2.228-2.245-5.314-3.496-8.682-3.496-1.343 0-2.636.249-3.894.678-1.053 5.241-4.398 21.902-7.115 35.432 2.201.397 4.362.915 6.464 1.567 6.473-10.812 13.986-23.352 16.278-27.182"/><path fill="#a86913" d="M97.7393 82.7793c2.932-1.958 6.063-3.632 9.353-4.981-6.76-11.291-13.191-22.053-13.861-23.174-.107 0-.183-.004-.183-.004-3.94 0-8.19 4.053-8.19 7.984 0 1.468.471 2.912 1.417 4.279z"/><path fill="#a86913" d="M157.3843 82.7793c-2.928-1.958-6.061-3.632-9.352-4.981 6.76-11.291 13.188-22.053 13.858-23.174.115 0 .187-.004.187-.004 3.943 0 8.193 4.053 8.193 7.984 0 1.468-.476 2.912-1.411 4.279z"/><path fill="#a86913" d="M78.2183 106.105c-14.396-8.094-30.748-17.294-33.668-18.929-5.537-.926-11.651 2.937-13.687 8.984-1.864 5.961.745 12.655 5.744 15.244 3.527.41 22.093 2.575 38.435 4.472.366-1.65.812-3.299 1.344-4.953.54-1.644 1.153-3.252 1.832-4.818"/><path fill="#a86913" d="M38.3419 116.1973c-.801 1.063-1.43 2.227-1.845 3.489-1.041 3.205-.812 6.528.642 9.338 1.219 2.352 3.232 4.125 5.709 5.065 4.354-.992 18.607-4.255 30.897-7.083.026-2.201.194-4.408.499-6.62-13.714-1.607-30.595-3.569-35.902-4.189"/><path fill="#a86913" d="M62.8585 72.501c-2.558-.695-5.23-.443-7.597.731-2.83 1.436-4.961 3.978-6.002 7.18-.414 1.277-.585 2.594-.562 3.919 4.657 2.617 19.475 10.947 31.499 17.715 1.058-1.975 2.219-3.869 3.492-5.666-8.287-9.501-17.892-20.516-20.83-23.879"/><path fill="#a86913" d="M75.7544 142.0791c-.947-3.386-1.577-6.88-1.847-10.438-12.825 2.944-25.047 5.731-26.317 6.027-.038.099-.064.172-.064.172-1.217 3.747 1.319 9.048 5.06 10.266 1.4.452 2.909.442 4.507-.031z"/><path fill="#a86913" d="M94.188 85.3618c-2.766 2.168-5.32 4.629-7.626 7.349-8.65-9.922-16.897-19.357-17.756-20.342.032-.102.051-.178.051-.178 1.224-3.749 6.387-6.542 10.126-5.325 1.405.451 2.621 1.349 3.628 2.668z"/><path fill="#a86913" d="M180.0875 115.9126c16.404-1.909 35.045-4.082 38.363-4.476 5.022-2.5 7.703-9.225 5.793-15.309-1.996-5.92-8.039-9.804-13.611-8.959-3.088 1.738-19.383 10.903-33.719 18.965.672 1.563 1.293 3.16 1.822 4.806.539 1.647.978 3.304 1.352 4.973"/><path fill="#a86913" d="M206.4156 84.3145c.019-1.329-.146-2.644-.562-3.92-1.04-3.201-3.176-5.75-6.008-7.167-2.369-1.191-5.035-1.438-7.59-.748-2.938 3.37-12.551 14.386-20.838 23.891 1.279 1.794 2.438 3.691 3.492 5.659 12.029-6.766 26.845-15.094 31.506-17.715"/><path fill="#a86913" d="M212.2632 134.0728c2.48-.944 4.488-2.711 5.709-5.067 1.453-2.81 1.688-6.119.645-9.331-.418-1.272-1.047-2.431-1.847-3.496-5.312.617-22.19 2.592-35.896 4.176.303 2.22.477 4.443.504 6.637 12.288 2.821 26.533 6.091 30.885 7.081"/><path fill="#a86913" d="M160.9293 85.3618c2.77 2.185 5.32 4.635 7.633 7.358 8.638-9.921 16.894-19.356 17.746-20.346-.022-.1-.046-.183-.046-.183-1.22-3.739-6.388-6.537-10.122-5.322-1.4.451-2.623 1.356-3.637 2.674z"/><path fill="#a86913" d="M179.357 142.0889c.959-3.388 1.582-6.884 1.849-10.433 12.828 2.934 25.049 5.726 26.329 6.022.034.096.056.172.056.172 1.217 3.741-1.32 9.045-5.064 10.26-1.393.448-2.907.448-4.5-.028z"/><path fill="#a86913" d="M91.9048 167.8516c-12.145 11.196-25.948 23.907-28.407 26.167-2.59 4.99-.798 11.998 4.315 15.795 5.103 3.623 12.267 3.211 16.273-.75 1.483-3.221 9.274-20.217 16.136-35.165-1.46-.863-2.894-1.798-4.296-2.81-1.402-1.025-2.743-2.105-4.021-3.237"/><path fill="#a86913" d="M89.1807 208.8946c.759 1.091 1.672 2.056 2.755 2.839 2.726 1.974 5.952 2.793 9.078 2.271 2.606-.429 4.914-1.798 6.585-3.858.39-4.45 1.689-19.014 2.811-31.573-2.096-.707-4.14-1.551-6.151-2.53-5.764 12.547-12.848 27.995-15.078 32.851"/><path fill="#a86913" d="M55.1973 172.0733c-1.448 2.23-2.036 4.84-1.644 7.457.484 3.129 2.247 5.946 4.973 7.932 1.081.78 2.283 1.349 3.548 1.74 3.934-3.627 16.429-15.136 26.581-24.483-1.547-1.611-2.99-3.304-4.304-5.069-11.6 4.939-25.048 10.675-29.154 12.423"/><path fill="#a86913" d="M125.356 181.3194c-3.51-.146-7.03-.633-10.491-1.479-1.17 13.114-2.291 25.6-2.406 26.889.084.074.151.121.151.121 3.183 2.315 9.007 1.537 11.316-1.646.867-1.18 1.326-2.627 1.369-4.29z"/><path fill="#a86913" d="M77.1031 146.2549c1.223 3.303 2.774 6.495 4.646 9.529-12.109 5.159-23.64 10.091-24.832 10.602-.094-.063-.163-.115-.163-.115-3.179-2.31-4.242-8.086-1.929-11.27.866-1.185 2.093-2.076 3.66-2.621z"/><path fill="#a86913" d="M154.8648 173.919c6.891 15.008 14.711 32.063 16.108 35.098 3.937 4.007 11.162 4.48 16.355.785 5.013-3.729 6.842-10.686 4.314-15.705-2.611-2.412-16.359-15.074-28.46-26.219-1.274 1.117-2.604 2.199-4.001 3.213-1.408 1.021-2.847 1.959-4.316 2.828"/><path fill="#a86913" d="M193.0503 189.1924c1.273-.393 2.473-.951 3.55-1.74 2.727-1.99 4.497-4.804 4.968-7.93.396-2.617-.184-5.232-1.643-7.463-4.104-1.747-17.554-7.476-29.158-12.426-1.309 1.768-2.754 3.459-4.294 5.073 10.146 9.35 22.653 20.861 26.577 24.486"/><path fill="#a86913" d="M147.5367 210.125c1.666 2.069 3.971 3.437 6.582 3.872 3.127.514 6.346-.289 9.076-2.275 1.079-.786 1.995-1.746 2.751-2.842-2.229-4.852-9.313-20.295-15.065-32.836-2.02.967-4.073 1.818-6.157 2.525 1.117 12.557 2.412 27.118 2.813 31.556"/><path fill="#a86913" d="M177.9986 146.2637c-1.221 3.294-2.771 6.497-4.639 9.527 12.103 5.153 23.64 10.084 24.837 10.595.09-.062.15-.115.15-.115 3.188-2.3 4.256-8.086 1.935-11.27-.862-1.177-2.093-2.062-3.659-2.621z"/><path fill="#a86913" d="M129.7457 181.3252c3.519-.148 7.037-.639 10.496-1.477 1.164 13.106 2.298 25.596 2.406 26.903-.082.06-.142.105-.142.105-3.192 2.315-9.016 1.544-11.324-1.646-.864-1.182-1.324-2.625-1.372-4.289z"/><path fill="#cfa547" d="M144.7339 126.6421c-.477.171-.781.41-1.299.557-.192.043-.519.071-.58.138-.113.088-.236.093-.346.096-.091 0-.177-.01-.253-.01-.095 0-.163.016-.192.039l-.041.032h-.085c-.292 0-.792-.045-.794-.045l-.017-.003-.551-.184-.024-.022c-.045-.071-.632-.169-.814-.212-.293-.081-.442-.274-.736-.426-.051-.026-.113-.032-.195-.032h-.086c-.139.009-.372-.03-.487-.261l-.016-.026v-.003c-.01-.013-.032-.033-.058-.055-.06-.046-.145-.106-.238-.171-.184-.135-.381-.259-.485-.413-.605-1.023-.387-1.916-.826-2.88-.051-.117-.072-.207-.07-.289 0-.098.015-.147.015-.251 0-.035-.001-.077-.006-.127-.007-.097-.013-.181-.013-.257-.001-.334.102-.497.236-.758.068-.174.111-.415.176-.75.053-.356.158-.91.371-1.238.334-.505.727-.765 1.047-1.153.429-.505 1.028-.724 1.511-1.042.204-.122.247-.198.514-.247.244-.058.591-.149.918-.176.357-.017.727-.102 1.121-.102.194 0 .393.021.598.083 1.264.386 2.018.313 3.092 1.531.415.474.801 1.149 1.158 1.624.219.343.191.891.277 1.169.139.372.233.58.244.982.006.07.008.137.008.196-.001.384-.106.548-.172.975-.086.491-.273.972-.484 1.398-.139.292-.404.765-.722 1.014-.114.067-.18.257-.36.406-.088.081-.225.269-.34.391-.396.435-.708.505-.996.502m7.081-11.505c.567.001 1.229-.086 1.706-.088.068 0 .129.004.184.007.113.008.316.069.349.065l.008-.001c0-.003.004-.001.026-.01.023-.01.051-.023.081-.038.059-.03.118-.061.148-.077.028-.007-.022-.007.069-.023.008 0 .025-.002.041-.002.132.002.351.026.606.045l.051.004.027.023c.046 0 .119-.003.219-.012.045.001.091.001.134.001.223 0 .431-.02.538-.059-.002-.002.08-.045.189-.153.103-.101.225-.254.309-.463l-.004-.01.027-.055c.227-.462.334-1.172.334-1.933.002-.919-.154-1.764-.486-2.19.002-.001 0 0-.034-.041-.083-.13-.267-.279-.499-.405-.528-.054-1.051-.105-1.533-.12-.426-.002-.921-.026-1.408-.026-.403 0-.8.016-1.137.075l-.016.002h-.016c-.381-.023-.755-.032-1.094-.03-.41-.002-.771.01-1.03.022-.271.012-.432.024-.42.023-.461.117-1.031.153-1.589.153-.884 0-1.742-.096-2.054-.133l-.132-.015v-.428l.016-.032c.067-.123.099-.259.12-.387 0-.016.001-.033.001-.049.001-.297-.087-.633-.137-1.003v-1.078c.012-.227.021-.468.021-.672 0-.214-.014-.397-.036-.451-.084-.286-.056-.563-.163-.68-.261-.144-.278-.231-.484-.343-.13-.074-.272-.168-.399-.254-.007-.018-.196-.052-.403-.057-.206-.01-.441-.014-.65-.063-.04.005-.081.007-.12.007-.1 0-.209-.01-.308-.015l.015.026-.263-.011c-.18-.009-.352-.02-.53-.02-1.128-.003-2.175.155-2.71.494-.583.359-.61.997-.61 1.094l-.014-.002.016.017v3.907h-2.58c-.51-.018-1.012-.069-1.498-.069-.025 0-.049 0-.07.001l-.958.018h-.015c-.082 0-.203-.003-.309-.003-.052 0-.099.001-.158.003l-.006-.002c-.088-.001-.275.042-.45.043-.094-.001-.192-.007-.292-.082v.002h-.003c-.012-.002-.032-.004-.055-.004-.048 0-.102.004-.135.005-.093.012-.174.015-.246.015-.075 0-.139-.003-.196-.003-.092 0-.175.005-.281.031-.138.032-.25.038-.348.038-.062 0-.117-.003-.173-.003-.049 0-.104.001-.164.008-.311.03-.42.017-.68.043-.139.013-.32.02-.522.02-.429 0-.925-.029-1.172-.063-.073-.013-.137-.018-.2-.018-.181 0-.339.041-.53.115-.046.017-.091.032-.137.055-.022.008-.035.013-.054.021-.038.012-.079.04-.14.092-.094.064-.178.137-.252.231-.33.427-.488 1.272-.485 2.191-.001.805.119 1.555.373 2.014.032.053.115.19.116.187.252.271.124.27.531.479.168.077.267.088.392.088.082 0 .18-.007.303-.007.049 0 .101.002.151.006h.073c.379 0 1.166-.099 1.682-.1.119 0 .225.005.318.021.016.003.044.007.078.007.205 0 .587-.088.846-.131l.015-.003 2.141.153-.222.229c-.223.229-.436.465-.646.72-.654.646-1.274 1.441-1.364 1.693-.358.877-.315 1.379-.666 2.137-.27.575-.545 1.232-.545 1.924h-.01l.01.023v.046c.002.515.061.754.186 1.243l.003.015.002.015c.024.534.086 1.053.188 1.572.019.214.043.398.081.634.036.347-.02.911.087 1.117.359.827.746 1.708 1.183 2.48.239.47.705.806 1.291 1.209.524.399.944.995 1.364 1.155.522.231.666.483 1.131.596.162.043.328.063.496.076l.029.001.024.014c.732.359 1.521.647 2.356.861l.112.027v3.258l.102 1.38-.012.371-.15-.01c-.125-.007-.256-.012-.381-.012-.157 0-.303.005-.407.012-.137.021-.289.074-.466.084-.034 0-.07.002-.106.002-.595-.002-1.693-.233-2.288-.231-.055 0-.105.001-.151.008-.352.028-.629.072-.938.072-.206 0-.422-.019-.674-.077-.109-.026-.213-.036-.324-.036-.178 0-.369.023-.582.023-.08 0-.162-.003-.252-.013-.693-.089-1.377-.102-2.105-.137l-1.4-.053c-.091-.008-.179-.013-.261-.013-.513.002-.897.138-1.185.404l-.013.013-.015.009c-.134.072-.259.169-.362.304-.331.425-.488 1.272-.486 2.19-.002.918.155 1.765.486 2.19.349.468.999.5 1.1.496.013 0 .023.002.017.002h.057l.022.005c.207.067.433.103.681.103.038 0 .081-.001.126-.001l.055-.002.042.034c.168.137.392.189.645.189.313 0 .659-.08.956-.126.777-.115 1.576-.269 2.39-.269.453 0 .907.048 1.367.178.061.019.145.025.241.025.227.002.504-.047.728-.056.781-.012 1.284-.313 2.002-.319.231 0 .484.034.775.127.011 0 .028.002.049.002.178 0 .574-.054.814-.054.065 0 .12.003.163.017.025.004.06.008.105.008.155.002.375-.039.559-.039.055-.002.111-.004.168-.004.24 0 .475.01.707.01.162 0 .324-.005.482-.022.188-.025.373-.036.562-.036.737 0 1.462.157 2.171.155.016 0 .036 0 .029.003.004 0 .01-.001.027-.001.245.004.721.077.992.215.001-.002.001-.002.005 0 .005 0 .015.002.027.002.033.004.083.005.136.005.047 0 .098-.001.151-.001.039.001.072.001.103.001.059-.001.106-.001.17.023.688-.012 1.106-.081 1.835-.081.672.002 1.101-.132 1.735-.132.061 0 .127 0 .198.003h.008c.219.034.226.124.299.108 0 0 .013-.002.007.002.245-.018.593-.025.981-.026 1.107.002 2.449.045 2.564.069.001.003.004.003.01.003s.02 0 .053.034l.002-.002c.06.055.131.08.238.08.317.008.809-.267 1.255-.275.024 0 .052.002.069.005.297.022 3.371.217 5.086.217h.201l.149.002v7.035l-.002.006c0 .1.027.732.609 1.092.536.34 1.582.496 2.711.494 1.129.002 2.177-.154 2.713-.494.58-.359.606-.994.606-1.092v-.015l.003-.515-.021-.132-.03-.849c-.038-.334-.127-.686-.161-1.057-.034-.238-.096-.545-.139-.789-.01-.049-.014-.1-.014-.162.002-.436.157-1.424.156-1.847.001-.079-.009-.139-.01-.139-.013-.031-.009-.043-.01-.061.003-.166.216-1.111.24-1.275q0-.036.015-.069c.018-.055.028-.135.027-.234.001-.582-.324-1.643-.404-2.071-.046-.234-.059-.367-.059-.5 0-.138.011-.267.018-.532v-.071c0-.212-.018-.578-.018-.866 0-.117.001-.22.011-.298.022-.265.017-.464.151-.718.124-.27.113-.161.124-.395v-.017c.005-.153-.1-.371-.105-.621 0-.013 0-.033.001-.033.002-.601.016-1.216.016-1.827 0-.678-.017-1.353-.081-2.022l-.019-9.241c-.004-.259-.008-.517-.008-.776 0-.723.024-1.437.063-2.085.007-.307.144-.603.14-.809v-.038c-.007-.074-.009-.155-.009-.242 0-.506.084-1.259.084-1.802 0-.063 0-.122-.002-.165-.041-.408-.108-.733-.108-1.115 0-.134.007-.275.028-.427.046-.314.06-.617.06-.925 0-.163-.006-.327-.01-.483l-.109-1.362v-.035c0-.168.021-.331.07-.476l.164-5.027-.054-.66v-1.781c0-.097-.027-.735-.606-1.094-.536-.339-1.584-.497-2.713-.494-1.129-.003-2.175.155-2.711.494-.582.359-.609.993-.609 1.092l.002.017v5.202l.123 3.911c-.021.373-.047.625-.047.8 0 .031.002.056.003.088.005.295.034.452.034.664 0 .05-.001.101-.004.16-.028.308-.021.667-.043.993-.049.661-.037 1.123-.049 1.784-.001.038-.001.074-.001.11-.001.475.101.773.101 1.29 0 .078-.002.158-.007.246-.04.749-.091.757-.149 1.004-.065.317-.091.62-.091.933 0 .553.081 1.138.159 1.859.041.358.174.683.176 1.099v.066c-.019.414-.105.774-.105 1.156 0 .358.015.717.015 1.079 0 .239-.006.48-.029.724-.016.154-.022.308-.022.459 0 .394.038.784.045 1.216l-.109 3.785-.01 3.181-3.531.146-3.969-.122c-.022.002-.044.002-.064.002-.272-.003-.504-.102-.663-.097-.021 0-.035 0-.043.003-.087.016-.169.022-.247.022-.164 0-.305-.024-.438-.022-.019 0-.033 0-.047.002-.381.029-.601.089-.804.272l-.043.039h-.057l-.485-.003-.023-.008c-.164-.06-.352-.083-.553-.083-.482-.001-1.036.13-1.54.132-.036 0-.076-.002-.11-.002-.094-.005-.166-.033-.195-.041l-.002.002h-.045c-.024 0-.039-.002-.048-.002l-.031-.002-.027-.011c-.146-.068-.39-.117-.667-.117-.165 0-.315.018-.446.046l-.022.005-.606-.056v-1.267l-.128-2.344.032-1.207.111-.027c1.007-.247 1.959-.586 2.832-.973l.021-.036.053-.018c.002 0 .021-.012.066-.026.167-.036.462-.122.494-.193.139-.21.477-.621.63-.758.187-.171.662-.562.974-.659 1.006-.306 1.375-1.479 2.057-2.489.695-1.074.791-2.026 1.216-3.299.127-.41.182-.669.182-.887 0-.204-.049-.383-.154-.645l-.015-.033.005-.036c.005-.05.01-.087.01-.124.004-.142-.041-.573-.061-.594l-.016-.037.003-.036c.003-.058.005-.127.005-.203.002-.549-.113-1.494-.157-1.678l-.043-.036.025-.091c.013-.048.019-.117.019-.194.002-.335-.137-.825-.228-1.09-.182-.414-.12-.396-.264-.729-.245-.502-.299-.662-.395-1.001-.072-.247-.953-1.252-1.638-1.621l-.33-.223z"/><path fill="#cfa547" d="M121.5347 119.0259c.521-.275.751-.64.756-1.151 0-.098-.01-.205-.028-.315l-.303-.679v-1.036c.034-.247.077-.492.128-.692.02-.064.031-.209.031-.389 0-.673-.146-1.863-.146-2.552 0-.195.008-.347.046-.462.061-.204.035-.436.094-.7.041-.211.084-.718.132-1.136.005-.047.006-.091.006-.132.002-.256-.082-.48-.084-.784 0-.012 0-.02.002-.027.005-.117.033-.23.063-.319.006-.026.008-.045.01-.055-.014-.018-.05-.054-.089-.112l-.009-.013-.334-.828.008-.043c0-.004.002-.009.002-.013.031-.043-.204-.249-.442-.412l-.018-.013-.013-.02c-.077-.109-.161-.213-.252-.315l-.02-.023-.01-.028-.006-.018-.007-.008c-.018-.017-.056-.046-.115-.091-.069-.067-.138-.132-.221-.202l.01.009c-.585-.482-1.336-.772-2.153-.772h-1.14l-.013-.003c-.372-.083-1.077-.157-1.604-.157-.14 0-.265.005-.372.018l-1.834.131c-.077.006-.148.006-.222.011h-1.155c-.764-.036-1.547-.117-2.26-.117-.133 0-.262.004-.389.01-1.161.056-2.834.208-4.111.208-.146 0-.287-.004-.425-.007-.4-.027-.965-.13-1.403-.13-.126 0-.236.008-.331.028-.198.028-.412.179-.727.221-.204.034-.377.041-.552.039l-.918-.117-.025-.018c-.007-.002-.025-.007-.048-.02-.279-.121-.463-.287-.625-.278-.034.001-.065.005-.105.018-.698.186-.932.05-1.499.193-.39.107-.652.146-.883.145-.398-.002-.65-.108-1.331-.136-.237-.013-.474-.018-.711-.018-.644 0-1.29.035-1.94.035-.333 0-.669-.01-.997-.035l-.433-.008-.022-.008c-.005-.002-.011-.003-.018-.005h-1.896l-.007-.002c-.1-.001-.75.03-1.098.498-.331.425-.489 1.272-.486 2.19-.003.918.155 1.765.486 2.191.26.343.669.45.917.481l.036.005h.005c.029.002.048.005.065.007.853.067 2.051.328 3.016.328.319 0 .611-.03.856-.099 1.066-.28 2.102-.277 3.237-.326.188-.007.351-.012.498-.012.765 0 1.037.091 1.79.089.138 0 .293-.001.471-.008.323-.017.415-.025.511-.025.084 0 .15.007.367.02.026.003.064.005.109.005.133 0 .316-.018.488-.018.091 0 .179.005.263.025l.061.014.007.012c.003 0 .006.001.009.001.043.005.109.009.188.009.405 0 1.091-.068 1.189-.068.264-.002.481-.011.712-.011.183 0 .374.004.606.025.262.031.537.082.792.082.113 0 .224-.01.328-.035.045-.013.091-.018.134-.018.327.015.568.232.696.214.005 0 .02-.002.03-.002.267-.052.435-.07.562-.07.209.001.27.042.395.041.027-.002.054-.002.086-.004.632-.052 1.324-.169 2.078-.169.04 0 .086 0 .131.002.29.006.586.009.892.009.722-.001 1.491-.019 2.318-.08l.016-.002 1.106.155c.235.028.443.122.614.234l.064.041.004.078c.034.925.024 2.379.036 2.704.001.079.123.367.127.596 0 .053-.007.106-.03.16-.049.087.002.163-.145.407-.078.114-.119.397-.115.633 0 .066.001.129.006.179.035.316.07.603.07.936 0 .041-.002.084-.002.135-.008.107-.013.192-.013.262.005.191.023.255.166.471.16.276.046.443.119.52.07.117.158.305.209.374.051.073.211.162.387.239.539.334 1.578.491 2.7.488 1.125.003 2.169-.154 2.705-.49.001-.003.011-.009.022-.018l.154-.105z"/><path fill="#cfa547" d="m125.3838 122.7979-.01-.002c-.071-.008-.128-.013-.163-.013h-.069l-3.402-.219c-.021.002-.042.002-.062.002-.272-.004-.504-.101-.664-.098-.02 0-.036.002-.044.004-.086.016-.168.021-.246.021-.163-.002-.304-.023-.438-.021-.02 0-.033 0-.046.001-.382.03-.601.089-.805.272l-.042.04-.057-.002-.485-.003-.023-.007c-.164-.059-.352-.082-.553-.082-.483-.002-1.036.13-1.54.131-.038 0-.076-.001-.111-.001-.098-.005-.174-.036-.199-.043l-.015.002c-.018 0-.09.018-.15.034-.077.019-.074.028-.149.038h-.03c-.252-.008-.565-.159-.745-.155-.047 0-.074.012-.082.018l-.038.027-2.917.041h-4.164l-2.713.002-.03-.015c-.453-.221-1.946-.277-2.522-.284-.288-.014-.561-.021-.828-.021-1.054 0-2.001.101-3.223.2-.505.031-1.808.003-2.267.107-.541.118-.466.072-.919.294-.234.119-.443.169-.638.169-.55-.014-.882-.348-1.472-.393-.593-.076-1.045-.23-1.575-.23-.28.001-.585.041-.952.163l-.025.008-1.612-.038c-.034.002-.066.002-.1.004-.612-.004-1.182-.254-1.683-.338-.143-.027-.258-.036-.356-.036-.357-.004-.519.144-1.004.293-.205.067-.414.087-.611.087-.449 0-.865-.109-1.079-.105-.073-.004-.102.011-.102.013l-.033.028-.042.005c-.184.026-.281.064-.352.103l-.022.012-.023.003c-.248.048-.583.168-.81.463-.329.427-.487 1.273-.484 2.192-.003.918.155 1.765.484 2.19.351.468 1.002.497 1.1.495h.202l.029.012c.069.033.189.049.328.049.281 0 .632-.065.866-.09.172-.023.33-.03.485-.03.34 0 .657.036 1.047.061l4.914-.036.038.034h9.028l-.003.152c-.002.018-.002.033-.002.044 0 .369.041.85.072 1.101.009.048.01.096.01.148-.001.418-.168 1.161-.166 1.519 0 .034.002.064.006.092.033.303.137.922.137 1.247.002.089 0 .127-.012.165-.006.016-.016.049-.042.239-.026.181-.071.677-.081.993l-.005.136-.137.005c-.008.002-.014.002-.026.002-.094.005-.19.051-.306.124l-.035.021-1.795-.002c-.412-.059-.827-.074-1.249-.074-.273 0-.549.005-.825.005-.231 0-.463-.003-.695-.015-.455-.016-1.193-.026-1.939-.026-.837 0-1.687.012-2.173.043h-.056c-.53-.005-.988-.216-1.426-.211-.018 0-.038 0-.063.002-.172.003-.347.117-.594.209l-.034.01-.029-.002c-.084-.008-.161-.013-.239-.013-.374.001-.67.092-.922.287-.117.07-.229.161-.321.283-.331.427-.49 1.271-.488 2.191 0 .853.135 1.64.422 2.09.026.043.048.079.066.1.349.467.998.498 1.098.496h.196l.023.007.013.005c.018.005.037.006.061.007.036 0 .088-.007.177-.019h.079c.13.013.216.074.232.082.008 0 .03-.004.064-.016.069-.026.142-.045.214-.062l.014-.004h1.128c.059-.028.117-.051.169-.076l.03-.012h.035c.997.022 2.598.076 3.342.135.32.025.639.037.959.035 1.173.002 2.345-.147 3.544-.147.607 0 1.221.039 1.847.158.288.059.621.167.892.165.053 0 .106-.004.161-.014.378-.045.728-.291 1.202-.361.225-.02.491-.026.751-.026.201 0 .399.003.58.008.54.047 1.143.043 1.693.162.471.097.85.207 1.234.205.104 0 .208-.008.318-.024.132-.022.285-.029.459-.029.452 0 1.035.045 1.58.045.745.01 1.398-.112 1.527-.396l.073-.131.129.07c.397.223 1.088.235 1.738.274.601.047 1.204.107 1.526.525l.097-.021v.187c0 .232-.004.492-.007.769v.108c-.015 1.442-.043 3.348-.043 4.75 0 .854.01 1.529.041 1.783l.058 1.129-.023.037c-.003.005-.013.034-.013.08 0 .11.041.273.043.426 0 .028-.002.053-.005.08-.017.129-.023.24-.023.338 0 .153.011.28.011.418.002.199-.029.414-.164.674-.019.129-.029.251-.029.366 0 .226.035.427.109.622.063.244.204.553.56.776.536.337 1.581.495 2.71.494.974 0 1.881-.114 2.457-.366l.129-.056v.002c.611-.272.876-.637.881-1.16 0-.122-.014-.254-.048-.401-.128-.748-.184-1.134-.278-1.95-.026-.235-.036-.577-.036-.964 0-1.008.064-2.332.064-2.777.002-.693.045-4.611.142-5.299.015-.103.021-.217.021-.341 0-.431-.077-.955-.077-1.481 0-.195.01-.391.041-.56v-.032l.011-.029c.078-.186.116-.377.116-.576.002-.568-.311-1.217-.835-1.874-.256-.333-.322-.412-.376-.437-.061-.035-.227-.061-.649-.234-.145-.081-.298-.148-.473-.212-.01-.006-.019-.009-.033-.015l-.042-.015c-.005-.002-.012-.003-.019-.007l-.018-.005c-.331-.107-.68-.164-1.044-.164h-10.155l-.038-.091c-.245-.568-.207-1.57-.217-1.772 0-.555.034-.651.075-1.112.009-.114.014-.232.014-.353 0-.533-.084-1.118-.084-1.65 0-.333.033-.649.154-.924l.04-.088h7.708c.026-.006.049-.011.065-.016l.017-.005h.021c.049-.002.107-.005.165-.005h.021c.002 0 1.048.042 1.135.042.035.001.068.001.104.001.255 0 .501-.036.772-.036.121 0 .246.008.388.033.054.013.102.018.148.018.168.005.329-.088.584-.094.071 0 .15.01.226.035.117.029.221.05.313.05.064 0 .122-.009.194-.039.073-.023.149-.031.226-.031.266.002.579.08.747.079h.021c.476-.028.919-.058 1.398-.069.313-.015.579-.03.844-.03.243 0 .486.013.754.053.17.023.382.042.588.042.234.004.457-.031.568-.095.308-.189.641-.148.701-.278.345-.478.334-.623.619-1.027.021-.029.031-.074.031-.151 0-.056-.006-.128-.006-.209 0-.01 0-.022.003-.038.01-.061.018-.121.024-.186.025-.233.035-.478.035-.729.004-.919-.153-1.765-.484-2.192-.257-.336-.658-.446-.908-.479"/><path fill="#cfa547" d="M127.563 0C57.12 0 0 57.116 0 127.562c0 70.447 57.12 127.554 127.563 127.554 70.454 0 127.556-57.107 127.556-127.554C255.119 57.116 198.017 0 127.563 0"/><path fill="#580009" d="M127.563 250.2139c-67.734 0-122.658-54.914-122.658-122.652 0-67.74 54.924-122.652 122.658-122.652 67.745 0 122.673 54.912 122.673 122.652 0 67.738-54.928 122.652-122.673 122.652"/><path fill="#cfa547" d="M229.564 93.8848c-2.592-7.857-9.587-13.428-17.855-14.253-1.553-7.095-6.853-10.789-8.459-11.754-5.957-3.871-12.474-3.027-13.95-2.763-.88-1.087-3.82-4.217-8.72-4.775-1.522-.158-3.19.024-4.79.548-.093.032-.178.059-.259.091v-.237c0-1.692-.324-3.329-.957-4.719-2.041-4.492-5.936-6.324-7.225-6.831-.217-1.473-1.428-7.94-6.971-12.422-1.4-1.218-6.539-5.106-13.765-4.393-3.348-7.61-10.809-12.553-19.061-12.581-8.261.028-15.728 4.971-19.073 12.581-7.223-.713-12.38 3.175-13.784 4.405-5.527 4.47-6.738 10.937-6.949 12.41-1.295.507-5.187 2.339-7.231 6.831-.626 1.39-.964 3.027-.964 4.719 0 .089.003.187.012.265-.075-.02-.152-.044-.225-.069-1.612-.517-3.268-.72-4.786-.549-4.915.549-7.854 3.688-8.738 4.767-1.465-.262-7.983-1.1-13.959 2.779-1.589.965-6.882 4.65-8.445 11.735-8.261.837-15.258 6.409-17.844 14.255-2.523 7.86-.138 16.488 6.065 22.017-2.912 6.656-.792 12.753-.069 14.467 2.55 6.634 8.318 9.795 9.661 10.442.079 1.396.614 5.666 4.259 8.99 1.138 1.031 2.591 1.852 4.199 2.374.082.024.17.05.257.079-.046.061-.094.131-.14.186-.998 1.371-1.689 2.894-2.008 4.39-.988 4.836 1.087 8.604 1.84 9.774-.7 1.323-3.515 7.255-1.669 14.141.422 1.808 2.29 7.982 8.551 11.648-1.763 8.127 1.377 16.5 8.038 21.384 6.699 4.821 15.637 5.221 22.819 1.031 5.429 4.823 11.884 4.7 13.744 4.528 7.096-.364 11.878-4.881 12.919-5.951 1.342.363 5.571 1.16 9.86-1.269 1.327-.762 2.561-1.894 3.556-3.261.044-.074.104-.157.153-.231.048.066.088.142.14.202.993 1.372 2.219 2.497 3.552 3.26 4.286 2.442 8.509 1.638 9.861 1.272 1.037 1.08 5.813 5.583 12.937 5.963 1.845.146 8.292.279 13.721-4.535 7.174 4.186 16.121 3.787 22.813-1.038 6.664-4.881 9.802-13.253 8.039-21.386 6.259-3.666 8.135-9.848 8.56-11.672 1.842-6.86-.982-12.797-1.683-14.123.767-1.163 2.836-4.932 1.845-9.768-.311-1.496-1.008-3.016-2.006-4.391-.045-.068-.105-.146-.162-.209.075-.024.158-.052.227-.07 1.613-.517 3.064-1.343 4.197-2.377 3.648-3.324 4.18-7.592 4.26-8.984 1.342-.656 7.113-3.803 9.666-10.456.728-1.719 2.835-7.809-.076-14.461 6.205-5.534 8.588-14.154 6.072-22.006"/><path fill="#fff" d="M127.563 175.2569c-26.335 0-47.686-21.35-47.686-47.687 0-26.344 21.351-47.688 47.686-47.688 26.343 0 47.687 21.344 47.687 47.688 0 26.337-21.344 47.687-47.687 47.687"/><path fill="#a86913" d="M132.7183 74.003c3.246-16.195 6.94-34.592 7.601-37.866-.84-5.554-6.405-10.179-12.768-10.245-6.257.066-11.821 4.622-12.731 10.176.695 3.476 4.382 21.809 7.617 37.935 1.687-.163 3.398-.247 5.126-.247 1.736 0 3.46.091 5.155.247"/><path fill="#a86913" d="M110.7984 39.1963c-1.252-.428-2.557-.677-3.893-.677-3.375 0-6.455 1.25-8.68 3.495-1.863 1.882-2.921 4.349-3.061 6.999 2.3 3.835 9.809 16.372 16.286 27.187 2.105-.654 4.265-1.17 6.459-1.566-2.715-13.535-6.06-30.197-7.111-35.438"/><path fill="#a86913" d="M159.9312 49.0137c-.135-2.65-1.193-5.118-3.051-6.999-2.228-2.245-5.314-3.496-8.682-3.496-1.343 0-2.636.249-3.894.678-1.053 5.241-4.398 21.902-7.115 35.432 2.201.397 4.362.915 6.464 1.567 6.473-10.812 13.986-23.352 16.278-27.182"/><path fill="#a86913" d="M97.7393 82.7793c2.932-1.958 6.063-3.632 9.353-4.981-6.76-11.291-13.191-22.053-13.861-23.174-.107 0-.183-.004-.183-.004-3.94 0-8.19 4.053-8.19 7.984 0 1.468.471 2.912 1.417 4.279z"/><path fill="#a86913" d="M157.3843 82.7793c-2.928-1.958-6.061-3.632-9.352-4.981 6.76-11.291 13.188-22.053 13.858-23.174.115 0 .187-.004.187-.004 3.943 0 8.193 4.053 8.193 7.984 0 1.468-.476 2.912-1.411 4.279z"/><path fill="#a86913" d="M78.2183 106.105c-14.396-8.094-30.748-17.294-33.668-18.929-5.537-.926-11.651 2.937-13.687 8.984-1.864 5.961.745 12.655 5.744 15.244 3.527.41 22.093 2.575 38.435 4.472.366-1.65.812-3.299 1.344-4.953.54-1.644 1.153-3.252 1.832-4.818"/><path fill="#a86913" d="M38.3419 116.1973c-.801 1.063-1.43 2.227-1.845 3.489-1.041 3.205-.812 6.528.642 9.338 1.219 2.352 3.232 4.125 5.709 5.065 4.354-.992 18.607-4.255 30.897-7.083.026-2.201.194-4.408.499-6.62-13.714-1.607-30.595-3.569-35.902-4.189"/><path fill="#a86913" d="M62.8585 72.501c-2.558-.695-5.23-.443-7.597.731-2.83 1.436-4.961 3.978-6.002 7.18-.414 1.277-.585 2.594-.562 3.919 4.657 2.617 19.475 10.947 31.499 17.715 1.058-1.975 2.219-3.869 3.492-5.666-8.287-9.501-17.892-20.516-20.83-23.879"/><path fill="#a86913" d="M75.7544 142.0791c-.947-3.386-1.577-6.88-1.847-10.438-12.825 2.944-25.047 5.731-26.317 6.027-.038.099-.064.172-.064.172-1.217 3.747 1.319 9.048 5.06 10.266 1.4.452 2.909.442 4.507-.031z"/><path fill="#a86913" d="M94.188 85.3618c-2.766 2.168-5.32 4.629-7.626 7.349-8.65-9.922-16.897-19.357-17.756-20.342.032-.102.051-.178.051-.178 1.224-3.749 6.387-6.542 10.126-5.325 1.405.451 2.621 1.349 3.628 2.668z"/><path fill="#a86913" d="M180.0875 115.9126c16.404-1.909 35.045-4.082 38.363-4.476 5.022-2.5 7.703-9.225 5.793-15.309-1.996-5.92-8.039-9.804-13.611-8.959-3.088 1.738-19.383 10.903-33.719 18.965.672 1.563 1.293 3.16 1.822 4.806.539 1.647.978 3.304 1.352 4.973"/><path fill="#a86913" d="M206.4156 84.3145c.019-1.329-.146-2.644-.562-3.92-1.04-3.201-3.176-5.75-6.008-7.167-2.369-1.191-5.035-1.438-7.59-.748-2.938 3.37-12.551 14.386-20.838 23.891 1.279 1.794 2.438 3.691 3.492 5.659 12.029-6.766 26.845-15.094 31.506-17.715"/><path fill="#a86913" d="M212.2632 134.0728c2.48-.944 4.488-2.711 5.709-5.067 1.453-2.81 1.688-6.119.645-9.331-.418-1.272-1.047-2.431-1.847-3.496-5.312.617-22.19 2.592-35.896 4.176.303 2.22.477 4.443.504 6.637 12.288 2.821 26.533 6.091 30.885 7.081"/><path fill="#a86913" d="M160.9293 85.3618c2.77 2.185 5.32 4.635 7.633 7.358 8.638-9.921 16.894-19.356 17.746-20.346-.022-.1-.046-.183-.046-.183-1.22-3.739-6.388-6.537-10.122-5.322-1.4.451-2.623 1.356-3.637 2.674z"/><path fill="#a86913" d="M179.357 142.0889c.959-3.388 1.582-6.884 1.849-10.433 12.828 2.934 25.049 5.726 26.329 6.022.034.096.056.172.056.172 1.217 3.741-1.32 9.045-5.064 10.26-1.393.448-2.907.448-4.5-.028z"/><path fill="#a86913" d="M91.9048 167.8516c-12.145 11.196-25.948 23.907-28.407 26.167-2.59 4.99-.798 11.998 4.315 15.795 5.103 3.623 12.267 3.211 16.273-.75 1.483-3.221 9.274-20.217 16.136-35.165-1.46-.863-2.894-1.798-4.296-2.81-1.402-1.025-2.743-2.105-4.021-3.237"/><path fill="#a86913" d="M89.1807 208.8946c.759 1.091 1.672 2.056 2.755 2.839 2.726 1.974 5.952 2.793 9.078 2.271 2.606-.429 4.914-1.798 6.585-3.858.39-4.45 1.689-19.014 2.811-31.573-2.096-.707-4.14-1.551-6.151-2.53-5.764 12.547-12.848 27.995-15.078 32.851"/><path fill="#a86913" d="M55.1973 172.0733c-1.448 2.23-2.036 4.84-1.644 7.457.484 3.129 2.247 5.946 4.973 7.932 1.081.78 2.283 1.349 3.548 1.74 3.934-3.627 16.429-15.136 26.581-24.483-1.547-1.611-2.99-3.304-4.304-5.069-11.6 4.939-25.048 10.675-29.154 12.423"/><path fill="#a86913" d="M125.356 181.3194c-3.51-.146-7.03-.633-10.491-1.479-1.17 13.114-2.291 25.6-2.406 26.889.084.074.151.121.151.121 3.183 2.315 9.007 1.537 11.316-1.646.867-1.18 1.326-2.627 1.369-4.29z"/><path fill="#a86913" d="M77.1031 146.2549c1.223 3.303 2.774 6.495 4.646 9.529-12.109 5.159-23.64 10.091-24.832 10.602-.094-.063-.163-.115-.163-.115-3.179-2.31-4.242-8.086-1.929-11.27.866-1.185 2.093-2.076 3.66-2.621z"/><path fill="#a86913" d="M154.8648 173.919c6.891 15.008 14.711 32.063 16.108 35.098 3.937 4.007 11.162 4.48 16.355.785 5.013-3.729 6.842-10.686 4.314-15.705-2.611-2.412-16.359-15.074-28.46-26.219-1.274 1.117-2.604 2.199-4.001 3.213-1.408 1.021-2.847 1.959-4.316 2.828"/><path fill="#a86913" d="M193.0503 189.1924c1.273-.393 2.473-.951 3.55-1.74 2.727-1.99 4.497-4.804 4.968-7.93.396-2.617-.184-5.232-1.643-7.463-4.104-1.747-17.554-7.476-29.158-12.426-1.309 1.768-2.754 3.459-4.294 5.073 10.146 9.35 22.653 20.861 26.577 24.486"/><path fill="#a86913" d="M147.5367 210.125c1.666 2.069 3.971 3.437 6.582 3.872 3.127.514 6.346-.289 9.076-2.275 1.079-.786 1.995-1.746 2.751-2.842-2.229-4.852-9.313-20.295-15.065-32.836-2.02.967-4.073 1.818-6.157 2.525 1.117 12.557 2.412 27.118 2.813 31.556"/><path fill="#a86913" d="M177.9986 146.2637c-1.221 3.294-2.771 6.497-4.639 9.527 12.103 5.153 23.64 10.084 24.837 10.595.09-.062.15-.115.15-.115 3.188-2.3 4.256-8.086 1.935-11.27-.862-1.177-2.093-2.062-3.659-2.621z"/><path fill="#a86913" d="M129.7457 181.3252c3.519-.148 7.037-.639 10.496-1.477 1.164 13.106 2.298 25.596 2.406 26.903-.082.06-.142.105-.142.105-3.192 2.315-9.016 1.544-11.324-1.646-.864-1.182-1.324-2.625-1.372-4.289z"/><path fill="#cfa547" d="M144.7339 126.6421c-.477.171-.781.41-1.299.557-.192.043-.519.071-.58.138-.113.088-.236.093-.346.096-.091 0-.177-.01-.253-.01-.095 0-.163.016-.192.039l-.041.032h-.085c-.292 0-.792-.045-.794-.045l-.017-.003-.551-.184-.024-.022c-.045-.071-.632-.169-.814-.212-.293-.081-.442-.274-.736-.426-.051-.026-.113-.032-.195-.032h-.086c-.139.009-.372-.03-.487-.261l-.016-.026v-.003c-.01-.013-.032-.033-.058-.055-.06-.046-.145-.106-.238-.171-.184-.135-.381-.259-.485-.413-.605-1.023-.387-1.916-.826-2.88-.051-.117-.072-.207-.07-.289 0-.098.015-.147.015-.251 0-.035-.001-.077-.006-.127-.007-.097-.013-.181-.013-.257-.001-.334.102-.497.236-.758.068-.174.111-.415.176-.75.053-.356.158-.91.371-1.238.334-.505.727-.765 1.047-1.153.429-.505 1.028-.724 1.511-1.042.204-.122.247-.198.514-.247.244-.058.591-.149.918-.176.357-.017.727-.102 1.121-.102.194 0 .393.021.598.083 1.264.386 2.018.313 3.092 1.531.415.474.801 1.149 1.158 1.624.219.343.191.891.277 1.169.139.372.233.58.244.982.006.07.008.137.008.196-.001.384-.106.548-.172.975-.086.491-.273.972-.484 1.398-.139.292-.404.765-.722 1.014-.114.067-.18.257-.36.406-.088.081-.225.269-.34.391-.396.435-.708.505-.996.502m7.081-11.505c.567.001 1.229-.086 1.706-.088.068 0 .129.004.184.007.113.008.316.069.349.065l.008-.001c0-.003.004-.001.026-.01.023-.01.051-.023.081-.038.059-.03.118-.061.148-.077.028-.007-.022-.007.069-.023.008 0 .025-.002.041-.002.132.002.351.026.606.045l.051.004.027.023c.046 0 .119-.003.219-.012.045.001.091.001.134.001.223 0 .431-.02.538-.059-.002-.002.08-.045.189-.153.103-.101.225-.254.309-.463l-.004-.01.027-.055c.227-.462.334-1.172.334-1.933.002-.919-.154-1.764-.486-2.19.002-.001 0 0-.034-.041-.083-.13-.267-.279-.499-.405-.528-.054-1.051-.105-1.533-.12-.426-.002-.921-.026-1.408-.026-.403 0-.8.016-1.137.075l-.016.002h-.016c-.381-.023-.755-.032-1.094-.03-.41-.002-.771.01-1.03.022-.271.012-.432.024-.42.023-.461.117-1.031.153-1.589.153-.884 0-1.742-.096-2.054-.133l-.132-.015v-.428l.016-.032c.067-.123.099-.259.12-.387 0-.016.001-.033.001-.049.001-.297-.087-.633-.137-1.003v-1.078c.012-.227.021-.468.021-.672 0-.214-.014-.397-.036-.451-.084-.286-.056-.563-.163-.68-.261-.144-.278-.231-.484-.343-.13-.074-.272-.168-.399-.254-.007-.018-.196-.052-.403-.057-.206-.01-.441-.014-.65-.063-.04.005-.081.007-.12.007-.1 0-.209-.01-.308-.015l.015.026-.263-.011c-.18-.009-.352-.02-.53-.02-1.128-.003-2.175.155-2.71.494-.583.359-.61.997-.61 1.094l-.014-.002.016.017v3.907h-2.58c-.51-.018-1.012-.069-1.498-.069-.025 0-.049 0-.07.001l-.958.018h-.015c-.082 0-.203-.003-.309-.003-.052 0-.099.001-.158.003l-.006-.002c-.088-.001-.275.042-.45.043-.094-.001-.192-.007-.292-.082v.002h-.003c-.012-.002-.032-.004-.055-.004-.048 0-.102.004-.135.005-.093.012-.174.015-.246.015-.075 0-.139-.003-.196-.003-.092 0-.175.005-.281.031-.138.032-.25.038-.348.038-.062 0-.117-.003-.173-.003-.049 0-.104.001-.164.008-.311.03-.42.017-.68.043-.139.013-.32.02-.522.02-.429 0-.925-.029-1.172-.063-.073-.013-.137-.018-.2-.018-.181 0-.339.041-.53.115-.046.017-.091.032-.137.055-.022.008-.035.013-.054.021-.038.012-.079.04-.14.092-.094.064-.178.137-.252.231-.33.427-.488 1.272-.485 2.191-.001.805.119 1.555.373 2.014.032.053.115.19.116.187.252.271.124.27.531.479.168.077.267.088.392.088.082 0 .18-.007.303-.007.049 0 .101.002.151.006h.073c.379 0 1.166-.099 1.682-.1.119 0 .225.005.318.021.016.003.044.007.078.007.205 0 .587-.088.846-.131l.015-.003 2.141.153-.222.229c-.223.229-.436.465-.646.72-.654.646-1.274 1.441-1.364 1.693-.358.877-.315 1.379-.666 2.137-.27.575-.545 1.232-.545 1.924h-.01l.01.023v.046c.002.515.061.754.186 1.243l.003.015.002.015c.024.534.086 1.053.188 1.572.019.214.043.398.081.634.036.347-.02.911.087 1.117.359.827.746 1.708 1.183 2.48.239.47.705.806 1.291 1.209.524.399.944.995 1.364 1.155.522.231.666.483 1.131.596.162.043.328.063.496.076l.029.001.024.014c.732.359 1.521.647 2.356.861l.112.027v3.258l.102 1.38-.012.371-.15-.01c-.125-.007-.256-.012-.381-.012-.157 0-.303.005-.407.012-.137.021-.289.074-.466.084-.034 0-.07.002-.106.002-.595-.002-1.693-.233-2.288-.231-.055 0-.105.001-.151.008-.352.028-.629.072-.938.072-.206 0-.422-.019-.674-.077-.109-.026-.213-.036-.324-.036-.178 0-.369.023-.582.023-.08 0-.162-.003-.252-.013-.693-.089-1.377-.102-2.105-.137l-1.4-.053c-.091-.008-.179-.013-.261-.013-.513.002-.897.138-1.185.404l-.013.013-.015.009c-.134.072-.259.169-.362.304-.331.425-.488 1.272-.486 2.19-.002.918.155 1.765.486 2.19.349.468.999.5 1.1.496.013 0 .023.002.017.002h.057l.022.005c.207.067.433.103.681.103.038 0 .081-.001.126-.001l.055-.002.042.034c.168.137.392.189.645.189.313 0 .659-.08.956-.126.777-.115 1.576-.269 2.39-.269.453 0 .907.048 1.367.178.061.019.145.025.241.025.227.002.504-.047.728-.056.781-.012 1.284-.313 2.002-.319.231 0 .484.034.775.127.011 0 .028.002.049.002.178 0 .574-.054.814-.054.065 0 .12.003.163.017.025.004.06.008.105.008.155.002.375-.039.559-.039.055-.002.111-.004.168-.004.24 0 .475.01.707.01.162 0 .324-.005.482-.022.188-.025.373-.036.562-.036.737 0 1.462.157 2.171.155.016 0 .036 0 .029.003.004 0 .01-.001.027-.001.245.004.721.077.992.215.001-.002.001-.002.005 0 .005 0 .015.002.027.002.033.004.083.005.136.005.047 0 .098-.001.151-.001.039.001.072.001.103.001.059-.001.106-.001.17.023.688-.012 1.106-.081 1.835-.081.672.002 1.101-.132 1.735-.132.061 0 .127 0 .198.003h.008c.219.034.226.124.299.108 0 0 .013-.002.007.002.245-.018.593-.025.981-.026 1.107.002 2.449.045 2.564.069.001.003.004.003.01.003s.02 0 .053.034l.002-.002c.06.055.131.08.238.08.317.008.809-.267 1.255-.275.024 0 .052.002.069.005.297.022 3.371.217 5.086.217h.201l.149.002v7.035l-.002.006c0 .1.027.732.609 1.092.536.34 1.582.496 2.711.494 1.129.002 2.177-.154 2.713-.494.58-.359.606-.994.606-1.092v-.015l.003-.515-.021-.132-.03-.849c-.038-.334-.127-.686-.161-1.057-.034-.238-.096-.545-.139-.789-.01-.049-.014-.1-.014-.162.002-.436.157-1.424.156-1.847.001-.079-.009-.139-.01-.139-.013-.031-.009-.043-.01-.061.003-.166.216-1.111.24-1.275q0-.036.015-.069c.018-.055.028-.135.027-.234.001-.582-.324-1.643-.404-2.071-.046-.234-.059-.367-.059-.5 0-.138.011-.267.018-.532v-.071c0-.212-.018-.578-.018-.866 0-.117.001-.22.011-.298.022-.265.017-.464.151-.718.124-.27.113-.161.124-.395v-.017c.005-.153-.1-.371-.105-.621 0-.013 0-.033.001-.033.002-.601.016-1.216.016-1.827 0-.678-.017-1.353-.081-2.022l-.019-9.241c-.004-.259-.008-.517-.008-.776 0-.723.024-1.437.063-2.085.007-.307.144-.603.14-.809v-.038c-.007-.074-.009-.155-.009-.242 0-.506.084-1.259.084-1.802 0-.063 0-.122-.002-.165-.041-.408-.108-.733-.108-1.115 0-.134.007-.275.028-.427.046-.314.06-.617.06-.925 0-.163-.006-.327-.01-.483l-.109-1.362v-.035c0-.168.021-.331.07-.476l.164-5.027-.054-.66v-1.781c0-.097-.027-.735-.606-1.094-.536-.339-1.584-.497-2.713-.494-1.129-.003-2.175.155-2.711.494-.582.359-.609.993-.609 1.092l.002.017v5.202l.123 3.911c-.021.373-.047.625-.047.8 0 .031.002.056.003.088.005.295.034.452.034.664 0 .05-.001.101-.004.16-.028.308-.021.667-.043.993-.049.661-.037 1.123-.049 1.784-.001.038-.001.074-.001.11-.001.475.101.773.101 1.29 0 .078-.002.158-.007.246-.04.749-.091.757-.149 1.004-.065.317-.091.62-.091.933 0 .553.081 1.138.159 1.859.041.358.174.683.176 1.099v.066c-.019.414-.105.774-.105 1.156 0 .358.015.717.015 1.079 0 .239-.006.48-.029.724-.016.154-.022.308-.022.459 0 .394.038.784.045 1.216l-.109 3.785-.01 3.181-3.531.146-3.969-.122c-.022.002-.044.002-.064.002-.272-.003-.504-.102-.663-.097-.021 0-.035 0-.043.003-.087.016-.169.022-.247.022-.164 0-.305-.024-.438-.022-.019 0-.033 0-.047.002-.381.029-.601.089-.804.272l-.043.039h-.057l-.485-.003-.023-.008c-.164-.06-.352-.083-.553-.083-.482-.001-1.036.13-1.54.132-.036 0-.076-.002-.11-.002-.094-.005-.166-.033-.195-.041l-.002.002h-.045c-.024 0-.039-.002-.048-.002l-.031-.002-.027-.011c-.146-.068-.39-.117-.667-.117-.165 0-.315.018-.446.046l-.022.005-.606-.056v-1.267l-.128-2.344.032-1.207.111-.027c1.007-.247 1.959-.586 2.832-.973l.021-.036.053-.018c.002 0 .021-.012.066-.026.167-.036.462-.122.494-.193.139-.21.477-.621.63-.758.187-.171.662-.562.974-.659 1.006-.306 1.375-1.479 2.057-2.489.695-1.074.791-2.026 1.216-3.299.127-.41.182-.669.182-.887 0-.204-.049-.383-.154-.645l-.015-.033.005-.036c.005-.05.01-.087.01-.124.004-.142-.041-.573-.061-.594l-.016-.037.003-.036c.003-.058.005-.127.005-.203.002-.549-.113-1.494-.157-1.678l-.043-.036.025-.091c.013-.048.019-.117.019-.194.002-.335-.137-.825-.228-1.09-.182-.414-.12-.396-.264-.729-.245-.502-.299-.662-.395-1.001-.072-.247-.953-1.252-1.638-1.621l-.33-.223z"/><path fill="#cfa547" d="M121.5347 119.0259c.521-.275.751-.64.756-1.151 0-.098-.01-.205-.028-.315l-.303-.679v-1.036c.034-.247.077-.492.128-.692.02-.064.031-.209.031-.389 0-.673-.146-1.863-.146-2.552 0-.195.008-.347.046-.462.061-.204.035-.436.094-.7.041-.211.084-.718.132-1.136.005-.047.006-.091.006-.132.002-.256-.082-.48-.084-.784 0-.012 0-.02.002-.027.005-.117.033-.23.063-.319.006-.026.008-.045.01-.055-.014-.018-.05-.054-.089-.112l-.009-.013-.334-.828.008-.043c0-.004.002-.009.002-.013.031-.043-.204-.249-.442-.412l-.018-.013-.013-.02c-.077-.109-.161-.213-.252-.315l-.02-.023-.01-.028-.006-.018-.007-.008c-.018-.017-.056-.046-.115-.091-.069-.067-.138-.132-.221-.202l.01.009c-.585-.482-1.336-.772-2.153-.772h-1.14l-.013-.003c-.372-.083-1.077-.157-1.604-.157-.14 0-.265.005-.372.018l-1.834.131c-.077.006-.148.006-.222.011h-1.155c-.764-.036-1.547-.117-2.26-.117-.133 0-.262.004-.389.01-1.161.056-2.834.208-4.111.208-.146 0-.287-.004-.425-.007-.4-.027-.965-.13-1.403-.13-.126 0-.236.008-.331.028-.198.028-.412.179-.727.221-.204.034-.377.041-.552.039l-.918-.117-.025-.018c-.007-.002-.025-.007-.048-.02-.279-.121-.463-.287-.625-.278-.034.001-.065.005-.105.018-.698.186-.932.05-1.499.193-.39.107-.652.146-.883.145-.398-.002-.65-.108-1.331-.136-.237-.013-.474-.018-.711-.018-.644 0-1.29.035-1.94.035-.333 0-.669-.01-.997-.035l-.433-.008-.022-.008c-.005-.002-.011-.003-.018-.005h-1.896l-.007-.002c-.1-.001-.75.03-1.098.498-.331.425-.489 1.272-.486 2.19-.003.918.155 1.765.486 2.191.26.343.669.45.917.481l.036.005h.005c.029.002.048.005.065.007.853.067 2.051.328 3.016.328.319 0 .611-.03.856-.099 1.066-.28 2.102-.277 3.237-.326.188-.007.351-.012.498-.012.765 0 1.037.091 1.79.089.138 0 .293-.001.471-.008.323-.017.415-.025.511-.025.084 0 .15.007.367.02.026.003.064.005.109.005.133 0 .316-.018.488-.018.091 0 .179.005.263.025l.061.014.007.012c.003 0 .006.001.009.001.043.005.109.009.188.009.405 0 1.091-.068 1.189-.068.264-.002.481-.011.712-.011.183 0 .374.004.606.025.262.031.537.082.792.082.113 0 .224-.01.328-.035.045-.013.091-.018.134-.018.327.015.568.232.696.214.005 0 .02-.002.03-.002.267-.052.435-.07.562-.07.209.001.27.042.395.041.027-.002.054-.002.086-.004.632-.052 1.324-.169 2.078-.169.04 0 .086 0 .131.002.29.006.586.009.892.009.722-.001 1.491-.019 2.318-.08l.016-.002 1.106.155c.235.028.443.122.614.234l.064.041.004.078c.034.925.024 2.379.036 2.704.001.079.123.367.127.596 0 .053-.007.106-.03.16-.049.087.002.163-.145.407-.078.114-.119.397-.115.633 0 .066.001.129.006.179.035.316.07.603.07.936 0 .041-.002.084-.002.135-.008.107-.013.192-.013.262.005.191.023.255.166.471.16.276.046.443.119.52.07.117.158.305.209.374.051.073.211.162.387.239.539.334 1.578.491 2.7.488 1.125.003 2.169-.154 2.705-.49.001-.003.011-.009.022-.018l.154-.105z"/><path fill="#cfa547" d="m125.3838 122.7979-.01-.002c-.071-.008-.128-.013-.163-.013h-.069l-3.402-.219c-.021.002-.042.002-.062.002-.272-.004-.504-.101-.664-.098-.02 0-.036.002-.044.004-.086.016-.168.021-.246.021-.163-.002-.304-.023-.438-.021-.02 0-.033 0-.046.001-.382.03-.601.089-.805.272l-.042.04-.057-.002-.485-.003-.023-.007c-.164-.059-.352-.082-.553-.082-.483-.002-1.036.13-1.54.131-.038 0-.076-.001-.111-.001-.098-.005-.174-.036-.199-.043l-.015.002c-.018 0-.09.018-.15.034-.077.019-.074.028-.149.038h-.03c-.252-.008-.565-.159-.745-.155-.047 0-.074.012-.082.018l-.038.027-2.917.041h-4.164l-2.713.002-.03-.015c-.453-.221-1.946-.277-2.522-.284-.288-.014-.561-.021-.828-.021-1.054 0-2.001.101-3.223.2-.505.031-1.808.003-2.267.107-.541.118-.466.072-.919.294-.234.119-.443.169-.638.169-.55-.014-.882-.348-1.472-.393-.593-.076-1.045-.23-1.575-.23-.28.001-.585.041-.952.163l-.025.008-1.612-.038c-.034.002-.066.002-.1.004-.612-.004-1.182-.254-1.683-.338-.143-.027-.258-.036-.356-.036-.357-.004-.519.144-1.004.293-.205.067-.414.087-.611.087-.449 0-.865-.109-1.079-.105-.073-.004-.102.011-.102.013l-.033.028-.042.005c-.184.026-.281.064-.352.103l-.022.012-.023.003c-.248.048-.583.168-.81.463-.329.427-.487 1.273-.484 2.192-.003.918.155 1.765.484 2.19.351.468 1.002.497 1.1.495h.202l.029.012c.069.033.189.049.328.049.281 0 .632-.065.866-.09.172-.023.33-.03.485-.03.34 0 .657.036 1.047.061l4.914-.036.038.034h9.028l-.003.152c-.002.018-.002.033-.002.044 0 .369.041.85.072 1.101.009.048.01.096.01.148-.001.418-.168 1.161-.166 1.519 0 .034.002.064.006.092.033.303.137.922.137 1.247.002.089 0 .127-.012.165-.006.016-.016.049-.042.239-.026.181-.071.677-.081.993l-.005.136-.137.005c-.008.002-.014.002-.026.002-.094.005-.19.051-.306.124l-.035.021-1.795-.002c-.412-.059-.827-.074-1.249-.074-.273 0-.549.005-.825.005-.231 0-.463-.003-.695-.015-.455-.016-1.193-.026-1.939-.026-.837 0-1.687.012-2.173.043h-.056c-.53-.005-.988-.216-1.426-.211-.018 0-.038 0-.063.002-.172.003-.347.117-.594.209l-.034.01-.029-.002c-.084-.008-.161-.013-.239-.013-.374.001-.67.092-.922.287-.117.07-.229.161-.321.283-.331.427-.49 1.271-.488 2.191 0 .853.135 1.64.422 2.09.026.043.048.079.066.1.349.467.998.498 1.098.496h.196l.023.007.013.005c.018.005.037.006.061.007.036 0 .088-.007.177-.019h.079c.13.013.216.074.232.082.008 0 .03-.004.064-.016.069-.026.142-.045.214-.062l.014-.004h1.128c.059-.028.117-.051.169-.076l.03-.012h.035c.997.022 2.598.076 3.342.135.32.025.639.037.959.035 1.173.002 2.345-.147 3.544-.147.607 0 1.221.039 1.847.158.288.059.621.167.892.165.053 0 .106-.004.161-.014.378-.045.728-.291 1.202-.361.225-.02.491-.026.751-.026.201 0 .399.003.58.008.54.047 1.143.043 1.693.162.471.097.85.207 1.234.205.104 0 .208-.008.318-.024.132-.022.285-.029.459-.029.452 0 1.035.045 1.58.045.745.01 1.398-.112 1.527-.396l.073-.131.129.07c.397.223 1.088.235 1.738.274.601.047 1.204.107 1.526.525l.097-.021v.187c0 .232-.004.492-.007.769v.108c-.015 1.442-.043 3.348-.043 4.75 0 .854.01 1.529.041 1.783l.058 1.129-.023.037c-.003.005-.013.034-.013.08 0 .11.041.273.043.426 0 .028-.002.053-.005.08-.017.129-.023.24-.023.338 0 .153.011.28.011.418.002.199-.029.414-.164.674-.019.129-.029.251-.029.366 0 .226.035.427.109.622.063.244.204.553.56.776.536.337 1.581.495 2.71.494.974 0 1.881-.114 2.457-.366l.129-.056v.002c.611-.272.876-.637.881-1.16 0-.122-.014-.254-.048-.401-.128-.748-.184-1.134-.278-1.95-.026-.235-.036-.577-.036-.964 0-1.008.064-2.332.064-2.777.002-.693.045-4.611.142-5.299.015-.103.021-.217.021-.341 0-.431-.077-.955-.077-1.481 0-.195.01-.391.041-.56v-.032l.011-.029c.078-.186.116-.377.116-.576.002-.568-.311-1.217-.835-1.874-.256-.333-.322-.412-.376-.437-.061-.035-.227-.061-.649-.234-.145-.081-.298-.148-.473-.212-.01-.006-.019-.009-.033-.015l-.042-.015c-.005-.002-.012-.003-.019-.007l-.018-.005c-.331-.107-.68-.164-1.044-.164h-10.155l-.038-.091c-.245-.568-.207-1.57-.217-1.772 0-.555.034-.651.075-1.112.009-.114.014-.232.014-.353 0-.533-.084-1.118-.084-1.65 0-.333.033-.649.154-.924l.04-.088h7.708c.026-.006.049-.011.065-.016l.017-.005h.021c.049-.002.107-.005.165-.005h.021c.002 0 1.048.042 1.135.042.035.001.068.001.104.001.255 0 .501-.036.772-.036.121 0 .246.008.388.033.054.013.102.018.148.018.168.005.329-.088.584-.094.071 0 .15.01.226.035.117.029.221.05.313.05.064 0 .122-.009.194-.039.073-.023.149-.031.226-.031.266.002.579.08.747.079h.021c.476-.028.919-.058 1.398-.069.313-.015.579-.03.844-.03.243 0 .486.013.754.053.17.023.382.042.588.042.234.004.457-.031.568-.095.308-.189.641-.148.701-.278.345-.478.334-.623.619-1.027.021-.029.031-.074.031-.151 0-.056-.006-.128-.006-.209 0-.01 0-.022.003-.038.01-.061.018-.121.024-.186.025-.233.035-.478.035-.729.004-.919-.153-1.765-.484-2.192-.257-.336-.658-.446-.908-.479"/></svg>