<svg xmlns="http://www.w3.org/2000/svg" viewBox="0 0 200 200">
  <rect width="200" height="200" rx="8" fill="#f8fafc"/>
  <rect x="35" y="50" width="40" height="14" rx="3" fill="#64748b" opacity="0.25"/>
  <rect x="80" y="50" width="55" height="14" rx="3" fill="#64748b" opacity="0.35"/>
  <rect x="140" y="50" width="25" height="14" rx="3" fill="#64748b" opacity="0.2"/>
  <rect x="35" y="72" width="60" height="14" rx="3" fill="#64748b" opacity="0.3"/>
  <rect x="100" y="72" width="35" height="14" rx="3" fill="#64748b" opacity="0.25"/>
  <rect x="35" y="94" width="25" height="14" rx="3" fill="#64748b" opacity="0.2"/>
  <rect x="65" y="94" width="50" height="14" rx="3" fill="#3b82f6" opacity="0.5"/>
  <rect x="120" y="94" width="45" height="14" rx="3" fill="#64748b" opacity="0.3"/>
  <rect x="35" y="116" width="45" height="14" rx="3" fill="#64748b" opacity="0.35"/>
  <rect x="85" y="116" width="30" height="14" rx="3" fill="#3b82f6" opacity="0.4"/>
  <rect x="120" y="116" width="40" height="14" rx="3" fill="#64748b" opacity="0.2"/>
  <rect x="35" y="138" width="55" height="14" rx="3" fill="#64748b" opacity="0.25"/>
  <rect x="95" y="138" width="40" height="14" rx="3" fill="#64748b" opacity="0.3"/>
</svg>
